PathFileType	4	(X/Y/Z)	c:/Users/goper/Files/vsCode/490R/osim_files/A06/A06_Slow_05.trc
DataRate	CameraRate	NumFrames	NumMarkers	Units                	OrigDataRate	OrigDataStartFrame	OrigNumFrames
120.00	120.00	5	36	mm	120.0	1100	1466
                Frame#	Time	LPSIS			LASIS			LTH1			LTH2			LTH3			LTH4			LLFE			LMFE			LSH1			LSH2			LSH3			LSH4			LLMAL			LMMAL			LCAL			LMTP5			LTOE			LMTP1			RPSIS			RASIS			RTH1			RTH2			RTH3			RTH4			RLFE			RMFE			RSH1			RSH2			RSH3			RSH4			RLMAL			RMMAL			RCAL			RMTP1			RTOE			RMTP5		
		X1	Y1	Z1	X2	Y2	Z2	X3	Y3	Z3	X4	Y4	Z4	X5	Y5	Z5	X6	Y6	Z6	X7	Y7	Z7	X8	Y8	Z8	X9	Y9	Z9	X10	Y10	Z10	X11	Y11	Z11	X12	Y12	Z12	X13	Y13	Z13	X14	Y14	Z14	X15	Y15	Z15	X16	Y16	Z16	X17	Y17	Z17	X18	Y18	Z18	X19	Y19	Z19	X20	Y20	Z20	X21	Y21	Z21	X22	Y22	Z22	X23	Y23	Z23	X24	Y24	Z24	X25	Y25	Z25	X26	Y26	Z26	X27	Y27	Z27	X28	Y28	Z28	X29	Y29	Z29	X30	Y30	Z30	X31	Y31	Z31	X32	Y32	Z32	X33	Y33	Z33	X34	Y34	Z34	X35	Y35	Z35	X36	Y36	Z36

1100	9.15833	-3026.86255	997.22430	181.06413	-3216.81812	946.20813	248.99837	-3185.95874	586.44641	274.49081	-3199.87524	545.26263	266.79141	-3247.18433	598.41974	259.30530	-3250.57568	556.23822	254.59308	-3232.44751	478.97104	246.29614	-3226.63965	475.74442	140.45999	-3177.80005	381.01917	262.20822	-3182.41016	335.21475	263.06738	-3236.85449	383.24710	250.28894	-3235.81616	340.75824	252.25586	-3179.84521	86.44454	210.81412	-3202.57007	105.89125	129.84012	-3118.74707	78.50108	153.59961	-3296.83008	46.99049	227.06870	-3336.51074	73.67805	177.62413	-3315.94263	65.18744	136.13416	-3026.15137	1013.85889	50.80256	-3201.20972	993.23083	-4.73068	-3147.06152	591.60938	-46.90290	-3157.70581	548.62854	-47.93282	-3206.71240	599.83948	-35.22084	-3208.68384	554.98090	-37.89930	-3193.20752	440.50668	-18.34765	-3188.16699	441.10239	70.39486	-3063.60107	350.54733	-13.45066	-3029.24707	317.51666	-13.41681	-3100.63525	305.57983	2.56297	0.00000	0.00000	0.00000	-2927.35132	224.73769	-29.05397	-2933.63428	218.17444	55.95329	-2869.25244	251.47017	16.67270	-2992.24219	91.09998	53.53897	-3013.68140	88.60809	16.44840	-2988.61670	98.03594	-34.32026
1101	9.16667	-3032.19897	998.26477	181.64664	-3222.66650	946.99225	250.15359	-3188.32275	586.79492	274.50919	-3202.76245	545.50854	266.98984	-3250.34619	598.17535	259.25940	-3253.79395	555.83380	254.77461	-3234.27930	478.81989	246.41539	-3228.27393	475.55844	140.36954	-3178.69116	380.76755	262.36734	-3183.35229	335.23315	263.13477	-3238.08545	382.97455	250.65152	-3237.26904	340.46442	252.61897	-3179.85938	86.56468	210.67165	-3202.63403	105.89465	129.78386	-3118.14404	77.82636	153.88931	-3296.83984	46.96313	227.07652	-3336.56543	73.55664	177.61775	-3315.97974	65.07301	136.14783	-3031.14014	1015.31903	51.52381	-3207.09253	994.73181	-3.44346	-3158.58276	593.28503	-46.08111	-3170.39844	550.47357	-46.90788	-3217.80981	602.80817	-33.94735	-3220.67773	557.95825	-36.57628	-3207.19922	443.12280	-17.02107	-3201.94507	443.78802	71.67000	-3080.28735	349.93103	-12.75228	-3047.05298	316.09286	-12.82951	-3118.96631	304.60928	3.21420	0.00000	0.00000	0.00000	-2946.42065	219.81073	-28.26787	-2953.31738	214.36874	56.15876	-2887.59351	246.15790	16.65351	-3015.18091	88.85445	54.22606	-3037.05591	86.89880	17.28734	-3011.93896	95.18900	-33.94272
1102	9.17500	-3039.41943	998.54883	182.88455	-3228.56494	947.87231	251.28674	-3192.18604	587.27173	274.89407	-3205.19458	545.57227	267.17770	-3253.39795	597.90320	259.33374	-3255.94312	555.65430	254.61363	-3236.04639	478.73856	246.55901	-3229.85571	475.26462	140.44263	-3179.71411	380.87567	262.42102	-3184.04199	335.28448	263.19849	-3238.96924	382.75482	250.83899	-3238.06226	340.33954	252.81480	-3179.98608	86.66656	210.64482	-3202.73291	105.95303	129.76958	-3118.16650	77.89102	153.89328	-3296.48560	46.81800	227.03134	-3336.63892	73.46021	177.64661	-3316.03882	65.00373	136.21567	-3037.00488	1016.43250	52.37177	-3212.71143	996.06537	-2.25276	-3169.75171	594.59351	-45.48251	-3182.16626	552.50232	-45.83593	-3228.63208	605.77673	-32.69984	-3232.48975	561.07770	-35.34282	-3221.12598	445.84924	-15.74014	-3216.15674	446.97894	73.65606	-3096.89551	349.10968	-12.02730	-3065.36035	314.27698	-12.52605	-3136.86768	304.65723	4.17447	0.00000	0.00000	0.00000	-2967.61792	216.09464	-28.41037	-2973.26709	210.14235	56.39206	-2908.42578	239.66263	16.04515	-3038.89038	86.40831	54.97792	-3060.94751	85.37826	18.16002	-3035.79883	92.77539	-33.01475
1103	9.18333	-3041.98364	1000.17780	183.19211	-3234.45190	948.59833	252.32680	-3194.25073	587.59418	274.90579	-3205.64819	545.80029	267.07938	-3256.25244	597.61151	259.49667	-3258.92456	555.26538	255.06950	-3237.64722	478.58911	246.68225	-3231.59448	475.08459	140.52328	-3180.54346	381.04227	262.56354	-3184.58618	334.88849	263.47452	-3240.61230	382.34100	251.38329	-3238.81323	340.20837	253.07201	-3180.03516	86.71217	210.59479	-3202.85571	105.95254	129.76042	-3118.57520	78.86333	154.00053	-3296.86255	46.76759	227.21259	-3336.71924	73.30868	177.70209	-3316.12720	64.88684	136.28366	-3042.87061	1017.58179	53.27153	-3218.39722	997.29816	-1.14099	-3180.38647	596.14685	-44.58227	-3193.63916	554.55371	-44.91261	-3239.16553	608.70233	-31.51180	-3243.85181	564.05066	-34.10787	-3234.69116	448.61115	-14.56288	-3229.29150	449.72214	74.82944	-3113.54492	348.18619	-11.40282	-3082.46802	312.31281	-11.72238	-3154.71289	304.60403	5.04903	0.00000	0.00000	0.00000	-2988.12329	210.47444	-27.78194	-2993.55493	205.60736	56.90081	-2928.30151	232.90608	15.86737	-3062.86548	84.07300	55.60208	-3085.33252	83.72330	18.76416	-3060.40039	90.01348	-32.36126
1104	9.19167	-3047.83789	1000.87317	183.92543	-3240.33691	949.35638	253.26183	-3196.80200	587.92712	275.11206	-3210.09326	546.85956	267.41022	-3259.01489	597.27557	259.76562	-3261.11084	554.84564	255.33354	-3239.06738	478.45087	246.97566	-3233.17065	474.80087	140.69096	-3181.44263	381.24048	262.68420	-3185.22559	335.01569	263.52408	-3241.20972	382.38638	251.63243	-3239.46875	340.09552	253.32057	-3179.77319	86.82909	210.40059	-3202.98047	105.98476	129.75438	-3118.68042	78.96876	153.95438	-3296.86499	46.63681	227.31512	-3336.79565	73.15893	177.76094	-3316.20142	64.79092	136.35304	-3048.64380	1018.63049	54.04642	-3224.10376	998.47400	-0.15457	-3190.63452	597.68616	-43.70441	-3204.43262	556.34448	-43.95010	-3249.35815	611.54645	-30.43256	-3254.90039	567.00928	-33.02487	-3247.81055	451.42538	-13.49211	-3242.00464	452.46585	75.86337	-3130.08569	346.90488	-10.72773	-3100.05176	310.27039	-11.16054	-3173.19775	304.74930	5.81109	0.00000	0.00000	0.00000	-3008.27173	205.09190	-27.40663	-3014.76904	200.77115	56.76523	-2948.68945	225.71187	15.77659	-3087.65430	81.44228	56.44225	-3110.57007	81.50431	19.88443	-3085.59888	87.20648	-31.71552
